<mxfile host="app.diagrams.net" agent="Mozilla/5.0 (Macintosh; Intel Mac OS X 10.15; rv:132.0) Gecko/20100101 Firefox/132.0" version="24.8.6">
  <diagram name="Page-1" id="gLCq967VV8Pxw2-r4MZ7">
    <mxGraphModel dx="1208" dy="739" grid="1" gridSize="10" guides="1" tooltips="1" connect="1" arrows="1" fold="1" page="1" pageScale="1" pageWidth="850" pageHeight="1100" math="0" shadow="0">
      <root>
        <mxCell id="0" />
        <mxCell id="1" parent="0" />
        <mxCell id="7sYZRBlQyH2WZ2nxOAKN-1" value="" style="rounded=0;whiteSpace=wrap;html=1;" vertex="1" parent="1">
          <mxGeometry x="80" y="40" width="720" height="780" as="geometry" />
        </mxCell>
        <mxCell id="7sYZRBlQyH2WZ2nxOAKN-8" value="" style="rounded=0;whiteSpace=wrap;html=1;" vertex="1" parent="1">
          <mxGeometry x="80" y="40" width="200" height="780" as="geometry" />
        </mxCell>
        <mxCell id="7sYZRBlQyH2WZ2nxOAKN-3" value="" style="ellipse;whiteSpace=wrap;html=1;" vertex="1" parent="1">
          <mxGeometry x="150" y="70" width="60" height="60" as="geometry" />
        </mxCell>
        <mxCell id="7sYZRBlQyH2WZ2nxOAKN-4" value="&lt;div&gt;Login Button&lt;br&gt;&lt;/div&gt;" style="shape=umlActor;verticalLabelPosition=bottom;verticalAlign=top;html=1;outlineConnect=0;fontSize=16;" vertex="1" parent="1">
          <mxGeometry x="165" y="70" width="30" height="60" as="geometry" />
        </mxCell>
        <mxCell id="7sYZRBlQyH2WZ2nxOAKN-7" value="" style="rounded=1;whiteSpace=wrap;html=1;" vertex="1" parent="1">
          <mxGeometry x="330" y="170" width="430" height="100" as="geometry" />
        </mxCell>
        <mxCell id="7sYZRBlQyH2WZ2nxOAKN-9" value="" style="endArrow=none;html=1;rounded=0;exitX=1.015;exitY=0.191;exitDx=0;exitDy=0;exitPerimeter=0;" edge="1" parent="1" source="7sYZRBlQyH2WZ2nxOAKN-8" target="7sYZRBlQyH2WZ2nxOAKN-1">
          <mxGeometry width="50" height="50" relative="1" as="geometry">
            <mxPoint x="400" y="420" as="sourcePoint" />
            <mxPoint x="450" y="370" as="targetPoint" />
            <Array as="points">
              <mxPoint x="80" y="190" />
            </Array>
          </mxGeometry>
        </mxCell>
        <mxCell id="7sYZRBlQyH2WZ2nxOAKN-10" value="" style="ellipse;whiteSpace=wrap;html=1;" vertex="1" parent="1">
          <mxGeometry x="90" y="210" width="30" height="30" as="geometry" />
        </mxCell>
        <mxCell id="7sYZRBlQyH2WZ2nxOAKN-11" value="" style="shape=cross;whiteSpace=wrap;html=1;" vertex="1" parent="1">
          <mxGeometry x="95" y="215" width="20" height="20" as="geometry" />
        </mxCell>
        <mxCell id="7sYZRBlQyH2WZ2nxOAKN-12" value="&lt;div style=&quot;font-size: 15px;&quot;&gt;Add Task&lt;/div&gt;" style="text;html=1;align=center;verticalAlign=middle;whiteSpace=wrap;rounded=0;" vertex="1" parent="1">
          <mxGeometry x="130" y="210" width="80" height="30" as="geometry" />
        </mxCell>
        <mxCell id="7sYZRBlQyH2WZ2nxOAKN-16" value="" style="ellipse;whiteSpace=wrap;html=1;" vertex="1" parent="1">
          <mxGeometry x="95" y="390" width="30" height="30" as="geometry" />
        </mxCell>
        <mxCell id="7sYZRBlQyH2WZ2nxOAKN-14" value="" style="shape=cross;whiteSpace=wrap;html=1;" vertex="1" parent="1">
          <mxGeometry x="100" y="395" width="20" height="20" as="geometry" />
        </mxCell>
        <mxCell id="7sYZRBlQyH2WZ2nxOAKN-15" value="&lt;font style=&quot;font-size: 15px;&quot;&gt;Projects&lt;/font&gt;" style="text;html=1;align=center;verticalAlign=middle;whiteSpace=wrap;rounded=0;" vertex="1" parent="1">
          <mxGeometry x="135" y="390" width="80" height="30" as="geometry" />
        </mxCell>
        <mxCell id="7sYZRBlQyH2WZ2nxOAKN-17" value="&lt;h1 style=&quot;margin-top: 0px;&quot;&gt;Heading&lt;/h1&gt;&lt;p&gt;Lorem ipsum dolor sit amet, consectetur adipisicing elit, sed do eiusmod tempor incididunt ut labore et dolore magna aliqua.&lt;/p&gt;" style="text;html=1;whiteSpace=wrap;overflow=hidden;rounded=0;" vertex="1" parent="1">
          <mxGeometry x="340" y="175" width="390" height="120" as="geometry" />
        </mxCell>
        <mxCell id="7sYZRBlQyH2WZ2nxOAKN-19" value="" style="rounded=1;whiteSpace=wrap;html=1;" vertex="1" parent="1">
          <mxGeometry x="330" y="315" width="430" height="100" as="geometry" />
        </mxCell>
        <mxCell id="7sYZRBlQyH2WZ2nxOAKN-18" value="&lt;h1 style=&quot;margin-top: 0px;&quot;&gt;Heading&lt;/h1&gt;&lt;p&gt;Lorem ipsum dolor sit amet, consectetur adipisicing elit, sed do eiusmod tempor incididunt ut labore et dolore magna aliqua.&lt;/p&gt;" style="text;html=1;whiteSpace=wrap;overflow=hidden;rounded=0;" vertex="1" parent="1">
          <mxGeometry x="340" y="320" width="390" height="120" as="geometry" />
        </mxCell>
        <mxCell id="7sYZRBlQyH2WZ2nxOAKN-20" value="" style="rounded=1;whiteSpace=wrap;html=1;" vertex="1" parent="1">
          <mxGeometry x="330" y="460" width="430" height="100" as="geometry" />
        </mxCell>
        <mxCell id="7sYZRBlQyH2WZ2nxOAKN-21" value="&lt;h1 style=&quot;margin-top: 0px;&quot;&gt;Heading&lt;/h1&gt;&lt;p&gt;Lorem ipsum dolor sit amet, consectetur adipisicing elit, sed do eiusmod tempor incididunt ut labore et dolore magna aliqua.&lt;/p&gt;" style="text;html=1;whiteSpace=wrap;overflow=hidden;rounded=0;" vertex="1" parent="1">
          <mxGeometry x="340" y="465" width="390" height="120" as="geometry" />
        </mxCell>
        <mxCell id="7sYZRBlQyH2WZ2nxOAKN-22" value="Current Project/General Tab (default)" style="text;html=1;align=center;verticalAlign=middle;whiteSpace=wrap;rounded=0;fontSize=24;fontStyle=1" vertex="1" parent="1">
          <mxGeometry x="320" y="70" width="450" height="30" as="geometry" />
        </mxCell>
      </root>
    </mxGraphModel>
  </diagram>
</mxfile>
